<?xml version="1.0" encoding="utf-8"?>
<!-- Generator: Adobe Illustrator 23.0.0, SVG Export Plug-In . SVG Version: 6.00 Build 0)  -->
<svg version="1.1" xmlns="http://www.w3.org/2000/svg" xmlns:xlink="http://www.w3.org/1999/xlink" x="0px" y="0px"
	 viewBox="0 0 300 300" style="enable-background:new 0 0 300 300;" xml:space="preserve">
<style type="text/css">
	.st0{display:none;}
	.st1{fill:#004A78;stroke:#004A78;stroke-width:5;stroke-miterlimit:10;}
	.st2{fill:#004A78;}
</style>
<g id="Ebene_1" class="st0">
	
		<image style="display:inline;overflow:visible;" width="16" height="16" xlink:href="header-link.png"  transform="matrix(18.4815 0 0 18.4815 1 2)">
	</image>
</g>
<g id="Ebene_2">
	<g>
		<polygon class="st1" points="268,269 30,269 30,31 161,31 161,14.5 13.5,14.5 13.5,285.5 284.5,285.5 284.5,141.7 268,141.7 		"/>
	</g>
</g>
<g id="Ebene_3">
	<g>
		<polygon class="st2" points="152,131.4 250.3,33 186.9,33 186.9,13.5 285.5,13.5 285.5,112.1 266,112.1 266,45 165.8,145.2 		"/>
		<path class="st2" d="M284,15v16.5v79h-16.5V41.4L165.8,143l-11.7-11.7l99.8-99.8h-65.5V15h79H284 M287,12h-3h-16.5h-79h-3v3v16.5
			v3h3h58.2L152,129.2l-2.1,2.1l2.1,2.1l11.7,11.7l2.1,2.1l2.1-2.1l96.5-96.5v61.9v3h3H284h3v-3v-79V15V12L287,12z"/>
	</g>
</g>
</svg>
