<?xml version="1.0" encoding="utf-8"?>
<!-- Generator: Adobe Illustrator 22.1.0, SVG Export Plug-In . SVG Version: 6.00 Build 0)  -->
<svg version="1.1" id="Ebene_1" xmlns="http://www.w3.org/2000/svg" xmlns:xlink="http://www.w3.org/1999/xlink" x="0px" y="0px"
	 viewBox="0 0 409.6 307.2" style="enable-background:new 0 0 409.6 307.2;" xml:space="preserve">
<style type="text/css">
	.st0{fill:#004B78;}
</style>
<title>mail</title>
<g id="Ebene_2_1_">
	<g id="Ebene_1-2">
		<path class="st0" d="M409.6,256c-0.1,8.6-2.3,17.1-6.6,24.6L273.7,135.9L401.6,24c5.2,8.1,8,17.6,8,27.2L409.6,256z M204.8,162.2
			l178-155.8c-7.5-4.2-15.9-6.4-24.4-6.4H51.2c-8.5,0-16.9,2.3-24.4,6.4L204.8,162.2z M254.4,152.8l-41.2,36.1
			c-4.8,4.2-12,4.2-16.9,0l-41.2-36.1l-131,146.6c8.1,5.1,17.4,7.9,27,7.9h307.2c9.6,0,18.9-2.8,27-7.9L254.4,152.8z M8,24
			c-5.2,8.1-8,17.6-8,27.2V256c0,8.6,2.3,17.1,6.6,24.6l129.3-144.7L8,24z"/>
	</g>
</g>
</svg>
