<?xml version="1.0" encoding="utf-8"?>
<!-- Generator: Adobe Illustrator 23.0.0, SVG Export Plug-In . SVG Version: 6.00 Build 0)  -->
<svg version="1.1" xmlns="http://www.w3.org/2000/svg" xmlns:xlink="http://www.w3.org/1999/xlink" x="0px" y="0px"
	 viewBox="0 0 300 300" style="enable-background:new 0 0 300 300;" xml:space="preserve">
<style type="text/css">
	.st0{display:none;}
	.st1{display:inline;fill:#828282;}
	.st2{fill:#FFFFFF;}
</style>
<g id="Ebene_1">
	<g class="st0">
		<rect x="-69" y="-10" class="st1" width="392" height="312"/>
	</g>
	<g class="st0">
		
			<image style="display:inline;overflow:visible;enable-background:new    ;" width="95" height="67" xlink:href="icon-truck.png"  transform="matrix(3.0314 0 0 3.0314 5 52)">
		</image>
	</g>
</g>
<g id="Ebene_2">
	<g>
		<path class="st2" d="M50,130.2h14C64,97,88.9,69.4,121.9,66l-1.4-13.9C80.3,56.2,50,89.8,50,130.2z"/>
		<path class="st2" d="M277.7,273.6l-59-59c20.7-22.1,33.4-51.8,33.4-84.4c0-68.1-55.4-123.6-123.6-123.6C60.4,6.6,5,62.1,5,130.2
			c0,68.1,55.4,123.6,123.6,123.6c25.8,0,49.8-8,69.6-21.5l60.5,60.5L277.7,273.6z M30,130.2c0-54.4,44.2-98.6,98.6-98.6
			c54.4,0,98.6,44.2,98.6,98.6c0,54.4-44.2,98.6-98.6,98.6C74.2,228.8,30,184.5,30,130.2z"/>
	</g>
</g>
</svg>
